<svg id="Icon_ionic-ios-close-circle-outline" data-name="Icon ionic-ios-close-circle-outline" xmlns="http://www.w3.org/2000/svg" width="37.243" height="37.243" viewBox="0 0 37.243 37.243">
  <path id="Path_1" data-name="Path 1" d="M26.283,24.261l-4.718-4.718,4.718-4.718A1.431,1.431,0,0,0,24.26,12.8L19.541,17.52,14.823,12.8A1.431,1.431,0,0,0,12.8,14.825l4.718,4.718L12.8,24.261a1.383,1.383,0,0,0,0,2.023,1.421,1.421,0,0,0,2.023,0l4.718-4.718,4.718,4.718a1.437,1.437,0,0,0,2.023,0A1.421,1.421,0,0,0,26.283,24.261Z" transform="translate(-0.92 -0.921)" fill="#f3f4fa"/>
  <path id="Path_2" data-name="Path 2" d="M22,5.882A16.109,16.109,0,1,1,10.6,10.6,16.008,16.008,0,0,1,22,5.882m0-2.507A18.622,18.622,0,1,0,40.618,22,18.619,18.619,0,0,0,22,3.375Z" transform="translate(-3.375 -3.375)" fill="#f3f4fa"/>
</svg>
