<svg xmlns="http://www.w3.org/2000/svg" width="31.5" height="31.5" viewBox="0 0 31.5 31.5">
  <path id="Icon_awesome-expand-arrows-alt" data-name="Icon awesome-expand-arrows-alt" d="M31.5,24.188v7.875a1.683,1.683,0,0,1-1.687,1.688H21.938a1.69,1.69,0,0,1-1.2-2.883l2.545-2.545L15.75,20.784,8.21,28.329l2.547,2.538a1.69,1.69,0,0,1-1.2,2.883H1.688A1.683,1.683,0,0,1,0,32.063V24.188a1.69,1.69,0,0,1,2.883-1.2l2.545,2.545L12.97,18,5.427,10.455,2.883,13.008A1.69,1.69,0,0,1,0,11.813V3.938A1.683,1.683,0,0,1,1.687,2.25H9.563a1.69,1.69,0,0,1,1.2,2.883L8.212,7.678l7.538,7.537,7.54-7.545L20.742,5.133a1.69,1.69,0,0,1,1.2-2.883h7.875A1.683,1.683,0,0,1,31.5,3.938v7.875a1.69,1.69,0,0,1-2.883,1.2l-2.545-2.545L18.53,18l7.543,7.545L28.617,23A1.686,1.686,0,0,1,31.5,24.188Z" transform="translate(0 -2.25)" fill="#3a8ec7"/>
</svg>
