<svg xmlns="http://www.w3.org/2000/svg" width="25px" height="25px" viewBox="0 0 24.88 24.88">
  <path id="Icon_awesome-info-circle" data-name="Icon awesome-info-circle" d="M13,.563A12.44,12.44,0,1,0,25.442,13,12.442,12.442,0,0,0,13,.563ZM13,6.08A2.107,2.107,0,1,1,10.9,8.187,2.107,2.107,0,0,1,13,6.08Zm2.809,12.741a.6.6,0,0,1-.6.6H10.8a.6.6,0,0,1-.6-.6v-1.2a.6.6,0,0,1,.6-.6h.6v-3.21h-.6a.6.6,0,0,1-.6-.6V12a.6.6,0,0,1,.6-.6h3.21a.6.6,0,0,1,.6.6v5.016h.6a.6.6,0,0,1,.6.6Z" transform="translate(-0.563 -0.563)" fill="#3a8ec7"/>
</svg>
