<svg xmlns="http://www.w3.org/2000/svg" width="54.541" height="54.541" viewBox="0 0 54.541 54.541">
  <path id="Icon_awesome-user-circle" data-name="Icon awesome-user-circle" d="M27.27.563a27.27,27.27,0,1,0,27.27,27.27A27.266,27.266,0,0,0,27.27.563Zm0,10.556A9.677,9.677,0,1,1,17.594,20.8,9.677,9.677,0,0,1,27.27,11.119Zm0,37.827a21.072,21.072,0,0,1-16.109-7.5A12.26,12.26,0,0,1,21.992,34.87a2.691,2.691,0,0,1,.781.121,14.559,14.559,0,0,0,4.5.759,14.5,14.5,0,0,0,4.5-.759,2.691,2.691,0,0,1,.781-.121A12.26,12.26,0,0,1,43.38,41.446,21.072,21.072,0,0,1,27.27,48.945Z" transform="translate(0 -0.563)"/>
</svg>
