<svg id="Logo" xmlns="http://www.w3.org/2000/svg" width="94" height="94" viewBox="0 0 94 94">
  <rect id="BG" width="94" height="94" fill="none"/>
  <g id="OSS" transform="translate(0.684 -0.694)">
    <path id="Path_5" data-name="Path 5" d="M21.38,47.87a7.8,7.8,0,0,1-2.14-.62,7.46,7.46,0,0,1-2.74-2.11,9.77,9.77,0,0,1-1.73-3.32,15.82,15.82,0,0,1,0-8.7,9.73,9.73,0,0,1,1.73-3.33,7.67,7.67,0,0,1,2.74-2.11,8.17,8.17,0,0,1,2.14-.62V23.81a12.76,12.76,0,0,0-3.32.78,11.32,11.32,0,0,0-4,2.6,12.5,12.5,0,0,0-2.74,4.31,16.42,16.42,0,0,0-1,6,16.36,16.36,0,0,0,1,6A12.54,12.54,0,0,0,14,47.75a11.32,11.32,0,0,0,4,2.6,13.18,13.18,0,0,0,3.32.78Z" transform="translate(4 11)" fill="#2c53c7"/>
    <path id="Path_6" data-name="Path 6" d="M34.44,31.5a12.6,12.6,0,0,0-2.72-4.31,11.17,11.17,0,0,0-4-2.6,12.85,12.85,0,0,0-3.37-.8v3.28a8.09,8.09,0,0,1,2.1.61,7.75,7.75,0,0,1,2.71,2.11,9.56,9.56,0,0,1,1.73,3.33,14.43,14.43,0,0,1,.61,4.35,14.52,14.52,0,0,1-.61,4.35,9.6,9.6,0,0,1-1.73,3.32,7.52,7.52,0,0,1-2.71,2.11,8.1,8.1,0,0,1-2.1.62v3.28a12.85,12.85,0,0,0,3.37-.8,11.17,11.17,0,0,0,4-2.6,12.65,12.65,0,0,0,2.72-4.32,16.36,16.36,0,0,0,1-6,16.42,16.42,0,0,0-1-5.93Z" transform="translate(4 11)" fill="#2c53c7"/>
    <path id="Path_7" data-name="Path 7" d="M46.65,48c3.85,0,5.78-1.31,5.78-4a4,4,0,0,0-.51-2,5.13,5.13,0,0,0-1.39-1.48,9.74,9.74,0,0,0-2-1.09c-.74-.3-1.53-.6-2.37-.91a24.13,24.13,0,0,1-2.74-1.12,9.58,9.58,0,0,1-2.24-1.48,6.42,6.42,0,0,1-1.5-2,6.68,6.68,0,0,1-.55-2.85,6.58,6.58,0,0,1,2.36-5.4A9.93,9.93,0,0,1,48,23.71a17.2,17.2,0,0,1,4.35.51,9.86,9.86,0,0,1,2.87,1.13l-1.17,3a10.75,10.75,0,0,0-2.38-1A12.61,12.61,0,0,0,48,26.9a8.19,8.19,0,0,0-2,.23,4.94,4.94,0,0,0-1.6.69A3.39,3.39,0,0,0,43.33,29a3.27,3.27,0,0,0-.4,1.66,3.47,3.47,0,0,0,.42,1.78,4.08,4.08,0,0,0,1.18,1.28,10,10,0,0,0,1.76,1c.67.31,1.41.61,2.23.92,1.14.45,2.18.91,3.13,1.36a10.51,10.51,0,0,1,2.47,1.64,6.43,6.43,0,0,1,1.62,2.26,7.91,7.91,0,0,1,.57,3.1,6.22,6.22,0,0,1-2.53,5.32c-1.69,1.24-4.06,1.86-7.13,1.86A18.241,18.241,0,0,1,43.78,51a19.28,19.28,0,0,1-2.33-.49,12.449,12.449,0,0,1-1.77-.61c-.49-.21-.88-.4-1.16-.55l1.1-3a16.43,16.43,0,0,0,2.66,1.1,13.54,13.54,0,0,0,4.37.55Z" transform="translate(4 11)" fill="#252525"/>
    <path id="Path_8" data-name="Path 8" d="M66.87,48c3.85,0,5.78-1.31,5.78-4a4,4,0,0,0-.52-2,5,5,0,0,0-1.38-1.48,10,10,0,0,0-2-1.09c-.75-.3-1.54-.6-2.37-.91a23.4,23.4,0,0,1-2.74-1.12,9.58,9.58,0,0,1-2.24-1.48,6.13,6.13,0,0,1-1.5-2,6.68,6.68,0,0,1-.55-2.85,6.6,6.6,0,0,1,2.35-5.4,10,10,0,0,1,6.5-1.94,17.25,17.25,0,0,1,4.35.51,10.1,10.1,0,0,1,2.87,1.13l-1.18,3a10.43,10.43,0,0,0-2.37-1,12.71,12.71,0,0,0-3.67-.48,8.27,8.27,0,0,0-2,.23,4.88,4.88,0,0,0-1.59.69A3.42,3.42,0,0,0,63.54,29a3.37,3.37,0,0,0-.39,1.66,3.47,3.47,0,0,0,.41,1.78,4.08,4.08,0,0,0,1.18,1.28,10.53,10.53,0,0,0,1.77,1c.67.31,1.41.61,2.22.92,1.14.45,2.19.91,3.14,1.36a10.51,10.51,0,0,1,2.47,1.64A6.53,6.53,0,0,1,76,40.87,7.91,7.91,0,0,1,76.52,44,6.19,6.19,0,0,1,74,49.36c-1.68,1.24-4.06,1.86-7.12,1.86A18.149,18.149,0,0,1,64,51a19.89,19.89,0,0,1-2.34-.49,12.729,12.729,0,0,1-1.76-.61c-.5-.21-.88-.4-1.16-.55l1.1-3a16,16,0,0,0,2.66,1.1A13.54,13.54,0,0,0,66.87,48Z" transform="translate(4 11)" fill="#252525"/>
  </g>
</svg>
